<?xml version="1.0" encoding="UTF-8"?>
<svg id="Layer_2" data-name="Layer 2" xmlns="http://www.w3.org/2000/svg" viewBox="0 0 130.3 132.99">
  <defs>
    <style>
      .cls-1 {
        fill: #224222;
        fill-rule: evenodd;
      }
    </style>
  </defs>
  <g id="Layer_4" data-name="Layer 4">
    <path class="cls-1" d="M13.62,103.21c.41-.73.45-1.44.59-2.11,3.17-15.42,8.05-30.26,15.32-44.26,11.18-21.53,27.8-37.62,49.28-48.68C87.45,3.71,96.77,1.12,106.46.2c6.99-.67,13.81.3,20.15,3.56,1.19.61,2.35,1.32,3.17,2.44.41.56.72,1.17.36,1.87-.37.72-1.05.75-1.75.69-2.2-.16-4.41-.22-6.6-.49-10.37-1.27-20.24.67-29.81,4.59-12.26,5.02-22.77,12.58-32.13,21.88-12.19,12.11-20.6,26.56-26.64,42.52-3.1,8.2-5.8,16.5-7.37,25.14-.08.44-.13.89-.18,1.33,0,.05.07.12.12.19.48-.13.65-.58.91-.91,4.83-6,9.76-11.91,15.47-17.13,1.5-1.37,3.12-2.56,4.93-3.48.84-.43,1.71-.77,2.65-.86,2.06-.19,3.06,1.14,2.2,3.02-1.39,3.03-3.16,5.86-5.21,8.49-4.13,5.31-8.32,10.57-12.45,15.88-5.03,6.48-9.47,13.35-13.44,20.52-.2.36-.4.72-.63,1.06-2.08,3.08-5.98,3.3-8.42.49-.82-.95-1.34-2.06-1.81-3.21-.95-2.28-1.71-4.63-2.41-6.99-1.51-5.09-3-10.18-4.47-15.28-.78-2.7-1.28-5.46-1.43-8.27-.11-2.02-.56-3.99-.95-5.98-.25-1.25-.49-2.49-.69-3.75-.22-1.46.26-2.53,1.3-3.08,1.04-.55,2.39-.32,3.43.61.94.84,1.62,1.88,2.06,3.04,1.87,5.01,5,9.46,6.48,14.64.04.12.15.23.31.45"/>
  </g>
</svg>