<?xml version="1.0" encoding="utf-8"?>
<!-- Generator: Adobe Illustrator 25.0.0, SVG Export Plug-In . SVG Version: 6.00 Build 0)  -->
<svg version="1.1" id="Layer_1" xmlns="http://www.w3.org/2000/svg" xmlns:xlink="http://www.w3.org/1999/xlink" x="0px" y="0px"
	 viewBox="0 0 17.2 17.2" style="enable-background:new 0 0 17.2 17.2;" xml:space="preserve">
<style type="text/css">
	.st0{fill:#84BF4D;}
	.st1{fill:#3F4347;}
</style>
<g>
	<g>
		<polygon class="st0" points="15.7,0 6.3,10.3 3.6,8.2 2.1,8.2 6.3,15.1 17.2,0 		"/>
		<path class="st1" d="M14.5,15.1c0,0.2-0.1,0.3-0.3,0.3H2.1c-0.2,0-0.3-0.1-0.3-0.3V3c0-0.2,0.1-0.3,0.3-0.3h8.2L12,0.9H0.6
			C0.3,0.9,0,1.2,0,1.5v15.1c0,0.3,0.3,0.6,0.6,0.6h15.1c0.3,0,0.6-0.3,0.6-0.6V4.9l-1.8,2.5V15.1z"/>
	</g>
</g>
</svg>
