<?xml version="1.0" encoding="utf-8"?>
<!-- Generator: Adobe Illustrator 25.0.0, SVG Export Plug-In . SVG Version: 6.00 Build 0)  -->
<svg version="1.1" id="Layer_1" xmlns="http://www.w3.org/2000/svg" xmlns:xlink="http://www.w3.org/1999/xlink" x="0px" y="0px"
	 viewBox="0 0 25.1 25.1" style="enable-background:new 0 0 25.1 25.1;" xml:space="preserve">
<style type="text/css">
	.st0{fill:#044F29;}
	.st1{fill:#FFFFFF;}
</style>
<g>
	<circle class="st0" cx="12.6" cy="12.6" r="12.6"/>
	<g>
		<path class="st1" d="M16.8,16.1L16.8,16.1l-0.1,0.1h-0.1l-0.1,0l-0.1,0l-0.3,0.1l-0.1,0l0,0l-0.1,0.1l-0.1,0l-0.2,0l-0.3,0
			L15,16.3h-0.2l-0.1,0l0-0.1l-0.1,0l0,0.1l-0.2,0l-0.1,0L14,16.1L13.9,16l0-0.1v-0.1l0,0l-0.1-0.1l0-0.1l-0.1-0.1l-0.1-0.1v-0.1
			l0,0l-0.1,0l-0.1-0.1l0-0.1l-0.1-0.1l-0.1-0.1v-0.1l0,0l-0.1-0.1v-0.1l-0.1-0.1l-0.2-0.2l-0.1-0.1l-0.1-0.1l-0.1,0l0,0L12,14.6
			l0,0.1l-0.1,0l0,0.1l-0.1,0.1L11.7,15l0,0.1l-0.1,0.1l0,0.2l-0.1,0l-0.1,0.2L11,15.9l0,0.1l-0.3,0.1l-0.1,0l-0.1,0l0,0l-0.4,0
			l-0.1,0l-0.1-0.1l-0.1,0l-0.1,0l-0.1,0l-0.2,0l-0.2,0l0,0l-0.1,0l-0.3,0l-0.3,0l-0.1,0l-0.1,0H8.2L8,16.1l0-0.1l0-0.1l0.1-0.1
			l0.2-0.3l0-0.1l0.2-0.1l0.1,0l0-0.1l0-0.1h0.1l0,0l0.1,0l-0.1-0.1l0,0L8.8,15h0.1l0-0.1l0,0l0,0l0-0.1v-0.1l0.2-0.1v-0.1l0,0
			l0.1-0.1l0-0.1l0.2-0.2l0.1,0l0-0.1l0.2-0.1l0-0.1l0.1-0.1l0.2-0.1l0-0.1l0.1-0.2l0-0.1l0.1-0.1l0.1-0.1l0-0.1l0.1-0.1l0.1-0.1
			l0-0.1l0.1-0.1l0.1-0.1l0-0.1l0.1-0.1l0-0.2l0,0L10.7,12l0-0.1l-0.1,0l-0.1-0.1v-0.1l-0.1-0.1l-0.2-0.2l0-0.1l-0.1,0L10,11.1
			L9.9,11l0-0.1l0.1-0.1l0,0l-0.1,0l-0.1,0l-0.2-0.2l-0.1-0.2l-0.1,0l-0.1-0.1l-0.1-0.1l0.1-0.1l0,0L9,9.8l0-0.1v0L8.8,9.7L8.7,9.6
			L8.7,9.4l0.1,0l0-0.1l-0.1,0l0-0.1L8.6,9.2H8.4l0-0.1L8.2,8.9l0-0.1L8.1,8.7l0-0.1V8.5l0.1-0.1l0.1-0.1l0.2,0l0.1,0l0-0.1l0.1,0
			l0.2,0l0.1,0l0.2,0l0.1,0l0.2,0l0.1,0l0.2,0.1l0.1-0.1h0.7l0.3,0.1l0.1,0l0.1,0.1l0.1,0.1l0.2,0.1v0.1l0,0.1L11.3,9l0.1,0.1l0,0.1
			l0.3,0.2l0.1,0.2l0.1,0.1l0.1,0.1L12,10l0.1,0.1l-0.1,0l0,0v0.1l0,0l0.3,0.1l0,0l0,0v0.1l0.1,0l0-0.1l0-0.2l0,0l0.1,0l0,0l0,0.1
			l0.1,0l0-0.1l0.1-0.1l0.1-0.1l0.1,0l0-0.1l0.1-0.1l0,0.1l0.1,0l0.1,0l0,0l-0.2,0v0l0.2,0l0,0l0-0.2l0.2,0l0.1,0l-0.1,0l-0.1,0
			l0-0.1l0.1,0l0,0l0.1-0.1l0.2-0.1L13.6,9L13.7,9l0-0.1l0.1-0.1l0.1-0.1V8.6L14,8.6l0-0.1h0.1l0.2-0.1l0.1,0l0.1,0l0.1,0.1V8.4l0,0
			l0.4,0l0.2,0l0,0l0,0.1l0.1,0l0.1-0.1H16l0,0.1l0.1,0l0-0.1l0.1,0l0.4,0l0.1,0l0,0l0,0.1l0,0l0,0l-0.1,0l0,0.1l0.1,0l0,0l0,0
			l-0.1,0.2h-0.1l0,0.1l0,0.1l-0.2,0.1l-0.1,0.1l0,0.1l0,0.1l-0.1,0.1l0,0.1L16,9.6l0,0.1l-0.1,0l-0.1,0l0,0l0.1,0l0.1,0l0,0.1
			l-0.1,0.1l0,0.1l-0.1,0.1v0.1l-0.1,0.1l-0.1,0.1l0,0l-0.1,0l-0.1,0.2l-0.1,0l-0.1,0.2L15,10.9l0,0.1l-0.1,0.1l-0.1,0l0,0l0.1,0
			l0,0.1l-0.1,0.1l-0.1,0l0,0.1l0,0.1l-0.2,0.1v0.1l-0.1,0.1l-0.1,0L14.2,12l-0.1,0.1v0.1L14,12.2l0,0.2l0.2,0.3l0,0.1l0.1,0l0,0.1
			l0.2,0.3l0,0.1l0.1,0.1l0.1,0.1l0,0.1l0.2,0.1l0.1,0.1l-0.1,0l0.1,0.1l0.1,0.1l0.1,0.1l0,0.1l0.4,0.4l0,0.1l0.1,0.1l0,0.1l0.2,0.2
			l0.1,0.2l0.3,0.4l0,0v0.1l0.1,0v-0.1l0,0l0.1,0.1l0.1,0v0.1l0.1,0.1L16.8,16.1L16.8,16.1L16.8,16.1L16.8,16.1z M8.1,8.5L8.1,8.5
			L8.1,8.5L8.1,8.5z M8.5,9.3L8.5,9.3l0.1,0v0.1L8.5,9.3z M8.6,15.7L8.6,15.7L8.6,15.7L8.6,15.7L8.6,15.7z M8.9,9.5L8.9,9.5L8.9,9.5
			L8.9,9.5L8.9,9.5L8.9,9.5z M8.9,15.5L8.9,15.5L8.9,15.5L8.9,15.5L8.9,15.5z M9.3,15.4L9.3,15.4L9.3,15.4l0,0.1l0.1,0l0,0L9.3,15.4
			L9.3,15.4z M9.3,15.2L9.3,15.2L9.3,15.2l0-0.1L9.3,15.2L9.3,15.2z M9.5,9.5L9.5,9.5L9.4,9.6L9.5,9.5L9.5,9.5z M9.6,14.6L9.6,14.6
			l-0.1,0L9.6,14.6L9.6,14.6L9.6,14.6z M9.7,15L9.7,15L9.7,15L9.7,15L9.7,15L9.7,15z M9.8,14.7l-0.1,0L9.8,14.7L9.8,14.7L9.8,14.7
			L9.8,14.7z M9.8,10L9.8,10L9.8,10L9.8,10L9.8,10z M9.9,15.7L9.9,15.7L9.9,15.7l-0.1,0v0.1L9.9,15.7L9.9,15.7z M9.8,15.9L9.8,15.9
			L9.8,15.9L9.8,15.9z M9.9,9.5L9.9,9.5L9.9,9.5l-0.1,0L9.9,9.5L9.9,9.5z M9.9,14.3H10l0-0.1L9.9,14.3L9.9,14.3L9.9,14.3z M9.9,10.1
			L9.9,10.1L9.9,10.1l0-0.1L9.9,10.1L9.9,10.1z M10.1,14.9L10.1,14.9L10.1,14.9L10.1,14.9L10.1,14.9L10.1,14.9z M10,14.6L10,14.6
			L10,14.6L10,14.6L10,14.6z M10.1,15.1L10.1,15.1L10.1,15.1L10,15.2h0.1V15.1L10.1,15.1z M10.1,8.7L10.1,8.7L10.1,8.7L10.1,8.7z
			 M10.1,9.6L10.1,9.6l0.1,0l0-0.1L10.1,9.6L10.1,9.6L10.1,9.6z M10.2,9.3L10.2,9.3L10.2,9.3l0.1,0.1l0,0l0-0.1L10.2,9.3L10.2,9.3z
			 M10.2,15.6L10.2,15.6L10.2,15.6L10.2,15.6L10.2,15.6z M10.3,10.2l-0.1,0l0,0.1l0,0h0.1V10.2L10.3,10.2z M10.3,14.4L10.3,14.4
			L10.3,14.4L10.3,14.4l0,0.1L10.3,14.4L10.3,14.4z M10.3,14.1L10.3,14.1L10.3,14.1L10.3,14.1L10.3,14.1L10.3,14.1z M10.3,9.9
			L10.3,9.9L10.3,9.9l0.1,0l0-0.1l-0.1,0L10.3,9.9z M10.5,10.9L10.5,10.9L10.5,10.9L10.5,10.9z M10.7,9.5L10.7,9.5L10.7,9.5l-0.2,0
			l0,0L10.7,9.5z M10.5,9.7L10.5,9.7L10.5,9.7L10.5,9.7L10.5,9.7z M10.6,10.6L10.6,10.6L10.6,10.6l-0.1,0L10.6,10.6z M10.5,9.2
			l0.1,0L10.5,9.2V9.1V9.2L10.5,9.2z M10.6,11.2L10.6,11.2l-0.1,0L10.6,11.2L10.6,11.2z M10.5,13.4L10.5,13.4l0-0.1L10.5,13.4
			L10.5,13.4z M10.6,15.4L10.6,15.4L10.6,15.4L10.6,15.4L10.6,15.4z M10.7,9.7L10.7,9.7L10.7,9.7L10.7,9.7L10.7,9.7z M10.8,14.9
			h-0.1l0,0.1L10.8,14.9L10.8,14.9L10.8,14.9z M10.8,10.2L10.8,10.2l0.1,0L10.8,10.2l0-0.1L10.8,10.2L10.8,10.2z M10.8,13.2
			L10.8,13.2L10.8,13.2L10.8,13.2L10.8,13.2z M10.9,10.5L10.9,10.5L10.9,10.5L10.9,10.5L10.9,10.5z M11,11.1l0-0.1l-0.1,0l0,0l0,0.1
			l0.1,0H11z M10.9,15L10.9,15L10.9,15L10.9,15z M10.9,10.2l0.2-0.1L11,10l0,0.1L10.9,10.2z M11,10.7L11,10.7L11,10.7L11,10.7
			L11,10.7z M10.9,10.9L10.9,10.9L10.9,10.9h0.1H10.9L10.9,10.9z M11.1,11.8L11.1,11.8L11.1,11.8L11.1,11.8z M11.1,11.4L11.1,11.4
			L11.1,11.4L11.1,11.4L11.1,11.4z M11.1,10.3L11.1,10.3L11.1,10.3h0.1H11.1L11.1,10.3z M11.1,11.6L11.1,11.6l0.1,0L11.1,11.6
			L11.1,11.6z M11.2,14.8L11.2,14.8L11.2,14.8L11.2,14.8L11.2,14.8z M11.3,11.9L11.3,11.9L11.3,11.9L11.3,11.9l0,0.1L11.3,11.9
			L11.3,11.9z M11.3,9.8L11.3,9.8L11.3,9.8L11.3,9.8z M11.2,11.3L11.2,11.3L11.2,11.3v-0.1V11.3L11.2,11.3z M11.2,11L11.2,11l0.1,0
			l0,0L11.2,11L11.2,11z M11.4,11.7L11.4,11.7L11.4,11.7l-0.1-0.1l-0.1,0l0,0L11.4,11.7z M11.3,12.6L11.3,12.6l0.1,0L11.3,12.6
			L11.3,12.6z M11.3,12.8L11.3,12.8L11.3,12.8v0.1V12.8L11.3,12.8z M11.3,13L11.3,13L11.3,13L11.3,13z M11.4,10.8L11.4,10.8
			L11.4,10.8L11.4,10.8z M11.4,12L11.4,12l0.2,0.1V12l0,0L11.4,12L11.4,12z M11.4,11.3v0.1l0,0l0.1,0l0-0.2L11.4,11.3L11.4,11.3z
			 M11.4,12.3l0.2,0l0,0l0,0.1l0,0l0-0.1l-0.1-0.1l-0.1,0V12.3L11.4,12.3z M11.4,13.8L11.4,13.8l0.1,0L11.4,13.8L11.4,13.8z
			 M11.4,11.6L11.4,11.6L11.4,11.6L11.4,11.6L11.4,11.6L11.4,11.6z M11.5,14.4L11.5,14.4L11.5,14.4L11.5,14.4L11.5,14.4z M11.5,12.4
			L11.5,12.4L11.5,12.4L11.5,12.4L11.5,12.4z M11.6,11.2L11.6,11.2l0-0.1l-0.1,0l0,0L11.6,11.2z M11.6,10.2L11.6,10.2L11.6,10.2
			L11.6,10.2z M11.6,12.7L11.6,12.7L11.6,12.7L11.6,12.7L11.6,12.7L11.6,12.7L11.6,12.7z M11.5,13.2L11.5,13.2L11.5,13.2L11.5,13.2
			L11.5,13.2z M11.7,11.7l0.1-0.1l-0.1-0.1l0,0l-0.1,0.1L11.7,11.7l-0.1,0l-0.1,0l0,0.1l0.1,0.1l0-0.1L11.7,11.7z M11.6,13.1
			L11.6,13.1l0.1-0.1l0-0.1l-0.1,0l0,0.1L11.6,13.1z M11.6,10.8L11.6,10.8L11.6,10.8l0.2-0.1L11.6,10.8L11.6,10.8z M11.7,10.6
			L11.7,10.6h-0.1H11.7l0,0.1L11.7,10.6L11.7,10.6z M11.7,13.6l0.1-0.1l0,0h-0.1L11.7,13.6l-0.1,0L11.7,13.6L11.7,13.6z M11.7,11.1
			l0.1,0.2l0,0.1l0.1,0l0.1,0l-0.1-0.1l0-0.1l0-0.1L11.7,11.1L11.7,11.1z M11.8,11.8L11.8,11.8L11.8,11.8h0.1H11.8L11.8,11.8z
			 M11.8,13.3L11.8,13.3L11.8,13.3l0-0.1L11.8,13.3L11.8,13.3z M11.9,12.2l0-0.1l-0.1,0l-0.1,0.1H11.9L11.9,12.2z M11.8,12.9
			L11.8,12.9L11.8,12.9L11.8,12.9L11.8,12.9z M11.8,13.1L11.8,13.1L11.8,13.1L11.8,13.1L11.8,13.1z M11.9,12.5L11.9,12.5L11.9,12.5
			l0.1,0.2v-0.1L11.9,12.5L11.9,12.5z M12,11.7h-0.2l0,0.1H12L12,11.7L12,11.7z M12.1,10.8l0-0.1l-0.1,0l0,0.1L12.1,10.8z M12,12
			L12,12L12,12L12,12L12,12z M12.1,12.7L12.1,12.7L12,12.8v0.1l0.1,0L12.1,12.7z M12.1,13.2L12.1,13.2l0-0.1l0,0L12,13.2L12.1,13.2
			L12.1,13.2z M12.1,13.5L12.1,13.5L12.1,13.5L12.1,13.5L12.1,13.5z M12.1,11.7L12.1,11.7L12.1,11.7l0.2,0.1v-0.1l0,0L12.1,11.7z
			 M12.1,12.1L12.1,12.1l0.1,0L12.1,12.1l0.1-0.1l0.1,0l0-0.1h-0.1l-0.1,0h-0.1L12.1,12.1L12.1,12.1z M12.6,13.7l-0.1-0.1l-0.2,0
			l0,0.1l-0.2,0.1l0,0h0.1l0.1-0.1l0.1,0L12.6,13.7z M12.2,10.9L12.2,10.9l0.2,0.1l0-0.1L12.2,10.9L12.2,10.9z M12.2,12.6L12.2,12.6
			L12.2,12.6l0.2,0.2h0.1l0-0.1l-0.1-0.1v-0.1l0.1-0.1l-0.1,0l0,0.1L12.2,12.6L12.2,12.6z M12.3,11.2L12.3,11.2L12.3,11.2L12.3,11.2
			z M12.3,11.5L12.3,11.5l0.1,0.1l0-0.1H12.3L12.3,11.5z M12.7,12.2L12.7,12.2l-0.3,0l-0.1,0l0,0.1l0,0l-0.1,0l0,0.1l0.1,0l0,0
			l0-0.1l0.2-0.1l0,0.1l0,0l0.1,0.1h0.1l0-0.1l0.1-0.2l-0.2,0L12.7,12.2L12.7,12.2z M12.4,13L12.4,13L12.4,13L12.4,13L12.4,13z
			 M12.4,13.3L12.4,13.3l0,0.1l0.1,0l0.1-0.1v-0.1l0,0L12.4,13.3z M12.4,13L12.4,13l0.2,0.1l0-0.1L12.4,13z M12.4,10.7L12.4,10.7
			L12.4,10.7L12.4,10.7L12.4,10.7z M12.4,11.3L12.4,11.3L12.4,11.3l0.1,0l0,0l0-0.1L12.4,11.3L12.4,11.3z M12.6,11.9L12.6,11.9
			l0-0.1l-0.1,0l0,0l0,0.1L12.6,11.9L12.6,11.9z M12.5,11.2L12.5,11.2l0.1-0.1l-0.1,0V11.2L12.5,11.2z M12.7,13.2L12.7,13.2l-0.1,0
			L12.7,13.2L12.7,13.2z M12.6,12.6L12.6,12.6L12.6,12.6L12.6,12.6L12.6,12.6z M12.7,13.9L12.7,13.9l-0.1,0l0,0L12.7,13.9L12.7,13.9
			z M12.6,11.7L12.6,11.7L12.6,11.7L12.6,11.7L12.6,11.7L12.6,11.7z M12.7,12.9L12.7,12.9L12.7,12.9L12.7,12.9z M12.7,12.3
			L12.7,12.3L12.7,12.3L12.7,12.3L12.7,12.3z M12.7,12.7L12.7,12.7L12.7,12.7L12.7,12.7L12.7,12.7z M12.8,10.3L12.8,10.3l0.1,0
			l0-0.1l-0.2,0L12.8,10.3L12.8,10.3z M12.9,13.6L12.9,13.6L12.9,13.6L12.9,13.6L12.9,13.6z M12.9,11.8l0.1-0.1l-0.1,0V11.8
			L12.9,11.8L12.9,11.8L12.9,11.8z M13,13.1L12.9,13l-0.1,0L13,13.1l-0.1,0.1l0,0.1l0.1,0L13,13.1z M13,12.8L13,12.8l-0.2,0l0,0.1
			L13,12.8z M12.9,11L12.9,11L12.9,11L12.9,11H13H12.9L12.9,11z M13.1,13.9L13.1,13.9L13,13.8l-0.1,0l0,0l0,0l0.1,0L13.1,13.9
			L13.1,13.9z M13,11.3L13,11.3L13,11.3L13,11.3z M13.1,13.7L13.1,13.7L13.1,13.7L13,13.6l0,0.1L13.1,13.7z M13.1,12.5L13.1,12.5
			L13.1,12.5L13.1,12.5L13.1,12.5L13.1,12.5z M13,11.7L13,11.7l0.1,0L13,11.7L13,11.7z M13.2,12.2L13.2,12.2l-0.1,0.1h0.1l0,0
			L13.2,12.2z M13.1,14.2L13.1,14.2L13.1,14.2L13.1,14.2z M13.2,13L13.2,13l-0.1,0.1L13.2,13L13.2,13z M13.2,12.9L13.2,12.9l0-0.1
			L13.2,12.9L13.2,12.9z M13.3,11.1L13.3,11.1l-0.1,0L13.3,11.1L13.3,11.1z M13.3,12.7h0.1l0-0.1l-0.1,0l-0.1,0L13.3,12.7L13.3,12.7
			z M13.3,13.5L13.3,13.5L13.3,13.5L13.3,13.5L13.3,13.5L13.3,13.5z M13.5,13.7L13.5,13.7l-0.1,0l0,0l0,0.1l0,0.1l0.1,0l0,0
			L13.5,13.7z M13.4,10.9L13.4,10.9L13.4,10.9L13.4,10.9L13.4,10.9z M13.3,12L13.3,12L13.3,12L13.3,12z M13.3,11.4L13.3,11.4
			L13.3,11.4L13.3,11.4z M13.4,11.2L13.4,11.2L13.4,11.2L13.4,11.2z M13.5,10.3L13.5,10.3L13.5,10.3L13.5,10.3z M13.5,12L13.5,12
			L13.5,12L13.5,12L13.5,12z M13.5,14.5L13.5,14.5l0.1-0.3l-0.1,0l-0.1,0.3H13.5L13.5,14.5z M13.5,13.2L13.5,13.2L13.5,13.2
			L13.5,13.2L13.5,13.2z M13.6,13L13.6,13l0-0.1l-0.1,0L13.6,13l-0.1,0L13.6,13L13.6,13z M13.5,10.9L13.5,10.9L13.5,10.9l0-0.1
			L13.5,10.9L13.5,10.9L13.5,10.9z M13.6,11.9L13.6,11.9L13.6,11.9l-0.1,0L13.6,11.9L13.6,11.9z M13.9,14L13.9,14L13.9,14L13.9,14
			l-0.2,0l0,0l0-0.1h-0.1l0,0l0,0.1l0.2,0.1l0.1,0L13.9,14z M13.6,9.8L13.6,9.8L13.6,9.8L13.6,9.8L13.6,9.8z M13.7,10.7L13.7,10.7
			L13.7,10.7L13.7,10.7L13.7,10.7z M13.7,11.5L13.7,11.5l-0.1,0.1l0.1,0l0,0L13.7,11.5z M13.7,10.4L13.7,10.4L13.7,10.4L13.7,10.4
			L13.7,10.4L13.7,10.4z M13.7,13.7L13.7,13.7L13.7,13.7L13.7,13.7L13.7,13.7z M13.7,11.3L13.7,11.3L13.7,11.3L13.7,11.3z
			 M13.9,14.4L13.9,14.4L13.9,14.4l0-0.1L13.9,14.4l-0.1,0L13.9,14.4L13.9,14.4z M13.8,13.2L13.8,13.2L13.8,13.2L13.8,13.2z
			 M13.8,13.5L13.8,13.5L13.8,13.5L13.8,13.5z M13.9,11.1L13.9,11.1L13.9,11.1L13.9,11.1z M14.1,14.6L14.1,14.6l0.1-0.1l-0.1,0H14
			l0,0l0,0v0.1l-0.1,0l0,0l0,0h0L14.1,14.6z M13.9,9.6L13.9,9.6L14,9.7l0-0.1H13.9L13.9,9.6z M13.9,14L13.9,14L13.9,14l0.1,0.1
			l0.1,0l0,0L13.9,14z M14,13.2L14,13.2L14,13.2L14,13.2L14,13.2L14,13.2L14,13.2z M14,10.5L14,10.5L14,10.5L14,10.5L14,10.5z
			 M14,13.5L14,13.5L14,13.5l0,0.1L14,13.5L14,13.5z M14,13.9L14,13.9L14,13.9L14,13.9L14,13.9L14,13.9z M14,14.7L14,14.7L14,14.7
			L14,14.7L14,14.7z M14,14.9L14,14.9L14,14.9L14,14.9z M14,9.4L14,9.4L14,9.4L14,9.4L14,9.4z M14.5,15.1L14.5,15.1l-0.2,0.1
			l-0.1-0.1l-0.1,0v0.1h0.1l0.3,0.1v-0.1l0,0L14.5,15.1L14.5,15.1z M14.2,14.1L14.2,14.1L14.2,14.1L14.2,14.1L14.2,14.1L14.2,14.1z
			 M14.2,14.3L14.2,14.3l-0.1-0.1L14.2,14.3L14.2,14.3z M14.2,13.9L14.2,13.9L14.2,13.9L14.2,13.9L14.2,13.9z M14.3,14.5l0,0.1l0,0
			l0.1,0l0-0.1L14.3,14.5L14.3,14.5L14.3,14.5L14.3,14.5z M14.3,14.8L14.3,14.8L14.3,14.8L14.3,14.8L14.3,14.8z M14.4,14.8
			L14.4,14.8L14.4,14.8L14.4,14.8L14.4,14.8z M14.4,15.4L14.4,15.4L14.4,15.4L14.4,15.4z M14.5,9.2L14.5,9.2L14.5,9.2L14.5,9.2
			L14.5,9.2z M14.5,14.1L14.5,14.1L14.5,14.1L14.5,14.1L14.5,14.1L14.5,14.1z M14.5,9.8L14.5,9.8L14.5,9.8l0.1,0.1L14.5,9.8
			L14.5,9.8z M14.5,14.9L14.5,14.9L14.5,14.9L14.5,14.9L14.5,14.9L14.5,14.9z M14.5,14.7L14.5,14.7L14.5,14.7L14.5,14.7z M14.8,10.4
			L14.8,10.4L14.8,10.4L14.8,10.4L14.8,10.4z M14.7,14.5L14.7,14.5l0-0.1L14.7,14.5L14.7,14.5z M14.8,15.4L14.8,15.4L14.8,15.4
			L14.8,15.4L14.8,15.4z M14.8,14.3L14.8,14.3l0.1-0.1h-0.1V14.3L14.8,14.3z M14.9,15L14.9,15l-0.2,0.1l0.1,0L14.9,15L14.9,15z
			 M14.9,10.1L14.9,10.1L14.9,10.1L14.9,10.1z M15,14.9L15,14.9L15,14.9L15,14.9L15,14.9z M15,9.8L15,9.8h-0.1H15L15,9.8z M15,14.6
			L15,14.6l0.1,0L15,14.6l0-0.1L15,14.6L15,14.6z M15,9.6L15,9.6l0.1-0.1L15,9.6L15,9.6L15,9.6z M15.1,9.3L15.1,9.3L15.1,9.3
			L15.1,9.3L15.1,9.3z M15.1,15.2L15.1,15.2L15.1,15.2L15.1,15.2z M15.3,9L15.3,9L15.3,9L15.3,9z M15.2,9.6L15.2,9.6l0.1,0V9.5
			l-0.1,0L15.2,9.6z M15.4,9.2L15.4,9.2L15.4,9.2L15.4,9.2L15.4,9.2L15.4,9.2z M15.5,9.8L15.5,9.8L15.5,9.8L15.5,9.8L15.5,9.8z"/>
	</g>
</g>
</svg>
