<?xml version="1.0" encoding="utf-8"?>
<!-- Generator: Adobe Illustrator 25.0.0, SVG Export Plug-In . SVG Version: 6.00 Build 0)  -->
<svg version="1.1" id="Layer_1" xmlns="http://www.w3.org/2000/svg" xmlns:xlink="http://www.w3.org/1999/xlink" x="0px" y="0px"
	 viewBox="0 0 440.1 43.5" style="enable-background:new 0 0 440.1 43.5;" xml:space="preserve">
<style type="text/css">
	.st0{fill:#073F22;}
</style>
<g id="Layer_2_1_">
	<g id="Layer_1-2">
		<path class="st0" d="M440.1,12.2v31.4H0V12.1c0.3,3.1,1.2,6.1,2.7,8.8C4,14,5.1,6.6,2.6,0c5.1,6.3,7.8,14.2,7.8,22.4l2-4l1.5,6.6
			c1-6.7,6.4-11.8,11.6-16.2l-4,10.7L31.6,8.7L28.1,20c4.7-4.3,7.3-10.5,7.2-16.8c0.2,3.5,0.3,7,0.5,10.5l1.5-4.3
			c3.2,5.3,1.1,10.3,6.5,14.1c-1.1-3-0.1-3.4,0.9-6.5l4,4.9L55,8.9l-2.9,11.3C57.5,15.5,61,9,61.8,2l-2.3,18.3l7.1-10.8
			c-1.7,5.5-1.5,11.5,0.5,16.9l1.4-2.5c1-5.6,1.9-11.2,2.9-16.8c0.9,3.7,1.5,7.5,1.8,11.3c0.2,0.3,0.4,0.6,0.6,0.9
			c0.6-2.8,1.6-5.5,3.2-7.8c0.4,1.9,0.8,3.9,1.2,5.8c0.8-4.2,2.6-8.2,5.3-11.6c-1.8,6.1,0.3,12.7,5.3,16.7c-0.3-2.4-0.7-4.7-1-7.1
			l3.8,4.4c-0.4-4.3-2-8.5-4.6-12c5.5,1.8,10.1,5.5,13,10.4c-1.2-2.7-1.7-5.6-1.3-8.5c1.8,4.8,4.7,13.5,9.8,12.9
			c-0.8-0.7-2.8-7-3.7-7.7c6.8-1.2,8.2,1,12,6.8c-3.1-6.2-2.5-11.7-5.1-17.6c4.9,4.2,5.4,9.1,6.5,10.3c2.7,3,3.6,3,6.1,3l-1.6-6
			c3.7,1.3,6.9,3.9,8.9,7.2c-0.1-2.2-0.2-4.5-0.3-6.7c2.5,2.4,4.4,5.4,5.3,8.7c0.5-1.6,1.1-3.3,1.6-5c0.3,2.2,0.6,4.5,0.9,6.7
			c0.6-7.2,5.7-7.2,5.5-17.5c2.7,3.7,1.6,9.2,1.6,13.8c0.5-2.3,3.1-8.9,3.7-11.3c2,4,2.9,8.5,2.7,13c1-3,1.9-5.9,2.9-8.9
			c0.3,4.3,1.5,8.4,3.5,12.3c-1.2-6.6-0.3-13.4,2.6-19.5c0.3,8.4,3.4,11.5,6.2,15c0.8-2.7,0.8-5.6-0.1-8.2c3.5,3.5,5.9,8,6.8,12.9
			c0.1-1.6,0.1-3.1,0.2-4.7l5.6,5h0.7c-3.2-7.2-4.3-15.2-3.3-23c1.3,7.3,2.4,12.2,6,16.7c0.6-3.9,4.8-11.1,3.6-14.9
			c2.9,2.8,3.3,12,3.6,16c1.1-3.6,3.6-12.5,4.7-16c-1.2,6.1-1.9,12.4-2.1,18.6c0.8,0.6,1.6,1.2,2.4,1.9c-2-6.2,0.3-6.8,1.8-14.2
			c0.1,8.8,2.9,8.4,8.7,15.3c-0.7-5.5-2.6-10.8-5.3-15.7c5.3,4.9,9.5,10.9,12.3,17.6l0.1-9.1c1.2,1.3,2.2,2.8,2.9,4.5
			c0.7,1.7,1.2,3.5,1.4,5.3c1.1-6.7,3.7-13,7.8-18.4c-2.5,5.2-3.1,11.2-1.7,16.8c0.7-6.4,3.3-12.5,7.4-17.5
			c0.8,4.4,1.6,8.9,2.4,13.3l2.8-9.6c0.8,3.9,1.7,7.8,2.6,11.6c1.6-5.9,2.2-12,1.6-18.1c3.5,5.7,6,12,7.2,18.5
			c2.9-3.7,3.9-8.6,2.8-13.2l5.6,7.1c-1.9-4.4-3-9.1-3.2-13.9l15,20.8L264,10.1c6,3.1,10.2,9.9,10.9,17.1c2-3.5,2.6-7.6,1.7-11.6
			c2.3,2.7,3.6,6.1,3.9,9.6c-0.5-8.4,1.8-16.8,6.5-23.9c-1,7.3,0.1,14.7,3.2,21.4c-0.5-4.7-1-9.3-1.5-14c3.8,5.7,6.7,11.9,8.4,18.5
			h0.6c-0.1-5-0.7-10-2-14.9c1.5,3.1,3.6,5.9,6.3,8.1l-4.9-11.9c3.2,1.8,9.5,5.6,14,8.8l1.9-11.2c1.2,4.9,1.8,9.9,2.1,14.9
			c0.3-3.8,1.5-7.4,3.6-10.6c0.4,1.9,0.8,3.9,1.2,5.8c0.8-4.2,2.6-8.2,5.3-11.6c-1.8,6.1,0.3,12.7,5.3,16.7c-0.3-2.4-0.7-4.7-1-7.1
			l3.8,4.4c-0.4-4.3-2-8.5-4.6-12c5.4,1.8,8.9,9,11.8,13.9c-1.2-2.6-0.5-9.1-0.1-11.9c1.9,4.8,3.5,12.5,8.6,12
			c-0.9-0.7-1.7-6-2.5-6.7c6.8-1.2,8.2,1,11.9,6.8c-3.1-6.2-2.5-11.7-5.1-17.6c4.9,4.2,5.4,9.1,6.5,10.3c2.7,3,3.6,3,6.1,3l-1.6-6
			c3.7,1.3,6.9,3.9,8.9,7.2l-0.3-6.7c2.5,2.4,4.4,5.4,5.3,8.7c0.5-1.6,1.1-3.3,1.6-5c0.3,2.2,0.6,4.5,1,6.7
			c0.6-7.1,5.7-7.2,5.5-17.5c2.8,3.7,1.6,9.2,1.6,13.8c0.5-2.3,3.1-8.9,3.7-11.3c2,4,2.9,8.5,2.7,13c1-3,1.9-5.9,2.9-8.9
			c0.3,4.3,1.5,8.4,3.5,12.2c-1.2-6.6-0.3-13.4,2.6-19.5c0.3,8.4,3.4,11.5,6.2,15c0.8-2.7,0.8-5.6-0.1-8.2c3.5,3.5,5.9,8,6.8,12.9
			c0.1-1.6,0.1-3.1,0.2-4.7l6.8,6.1c-3.6-7.5-4.9-15.9-3.8-24.2c1.3,7.3,2.4,12.2,6,16.7c0.5-3.9,8.7-7.7,7.5-11.5
			c2.9,2.8-0.7,8.5-0.4,12.5c4.6-2.1,5.4-5.2,6.5-8.7C439.5,10.3,439.8,11.2,440.1,12.2z"/>
	</g>
</g>
</svg>
