<svg xmlns="http://www.w3.org/2000/svg" viewBox="0 0 440.07 43.54"><defs><style>.cls-1{fill:#0e7f40;}</style></defs><g id="Layer_2" data-name="Layer 2"><g id="Layer_1-2" data-name="Layer 1"><path class="cls-1" d="M440.07,12.18V43.54H0V12.1a23.51,23.51,0,0,0,2.71,8.84C4,14,5.14,6.6,2.62,0a34.93,34.93,0,0,1,7.75,22.37l2-4L13.88,25c1-6.73,6.45-11.77,11.6-16.22L21.43,19.5,31.62,8.69,28.06,20A22.5,22.5,0,0,0,35.25,3.17c.17,3.49.33,7,.5,10.47l1.53-4.27c3.22,5.27,1.07,10.34,6.46,14.1-1.14-3-.1-3.43.87-6.54l4,4.86L55,8.86,52.14,20.12A28.33,28.33,0,0,0,61.8,2L59.46,20.34,66.54,9.58a26,26,0,0,0,.51,16.94L68.48,24q1.44-8.43,2.89-16.85a77,77,0,0,1,1.82,11.29,8.67,8.67,0,0,1,.6.89A22,22,0,0,1,77,11.5c.41,1.94.81,3.87,1.21,5.81a27.42,27.42,0,0,1,5.3-11.63,15.59,15.59,0,0,0,5.31,16.69c-.32-2.37-.65-4.74-1-7.1l3.78,4.44a23.41,23.41,0,0,0-4.58-12,23.66,23.66,0,0,1,13,10.44,15.94,15.94,0,0,1-1.33-8.48c1.85,4.76,4.71,13.52,9.78,12.94-.84-.71-2.85-7-3.7-7.72,6.78-1.17,8.24,1,12,6.81-3.11-6.21-2.53-11.72-5.09-17.58,4.91,4.24,5.39,9.05,6.47,10.26,2.68,3,3.57,3,6.1,3.05l-1.56-6a16.65,16.65,0,0,1,8.89,7.24c-.1-2.24-.2-4.49-.29-6.73a18.92,18.92,0,0,1,5.31,8.71c.54-1.65,1.09-3.3,1.63-5,.32,2.23.63,4.47.95,6.7.63-7.16,5.74-7.2,5.52-17.55,2.74,3.69,1.63,9.24,1.56,13.84.52-2.34,3.14-8.95,3.67-11.29a26.37,26.37,0,0,1,2.69,13q1.44-4.45,2.9-8.9A32,32,0,0,0,159,23.71a32.31,32.31,0,0,1,2.59-19.49c.27,8.42,3.39,11.54,6.17,15a13.79,13.79,0,0,0-.07-8.24,25.22,25.22,0,0,1,6.8,12.91c.07-1.57.13-3.13.2-4.7l5.61,5,.71,0a43.28,43.28,0,0,1-3.26-23c1.28,7.34,2.43,12.2,6,16.72.55-3.92,4.82-11.13,3.57-14.88,2.9,2.77,3.27,12,3.57,16,1.08-3.57,3.62-12.47,4.7-16a129.15,129.15,0,0,0-2.12,18.61,18.07,18.07,0,0,1,2.35,1.94c-2-6.16.3-6.77,1.84-14.25.15,8.78,2.89,8.42,8.68,15.27A42.72,42.72,0,0,0,201,8.93a50.42,50.42,0,0,1,12.34,17.62l.09-9.07a16.33,16.33,0,0,1,2.9,4.49,17.54,17.54,0,0,1,1.37,5.31,41.94,41.94,0,0,1,7.76-18.4,24.93,24.93,0,0,0-1.69,16.78,32.94,32.94,0,0,1,7.42-17.53q1.2,6.67,2.39,13.34l2.76-9.57q1.27,5.82,2.57,11.65a49.48,49.48,0,0,0,1.55-18.14,54.89,54.89,0,0,1,7.22,18.53,15.19,15.19,0,0,0,2.76-13.18l5.56,7.1a41.51,41.51,0,0,1-3.25-13.92l15,20.83L264,10.13c6,3.13,10.24,9.87,10.86,17.12a16.44,16.44,0,0,0,1.73-11.58,17.17,17.17,0,0,1,3.93,9.58A38.9,38.9,0,0,1,287,1.39a37.8,37.8,0,0,0,3.23,21.37q-.74-7-1.46-14a60.49,60.49,0,0,1,8.4,18.51h.62a60.9,60.9,0,0,0-2-14.86,23.36,23.36,0,0,0,6.32,8.11l-4.86-11.9c3.2,1.83,9.49,5.65,14.05,8.83l1.92-11.17a78.83,78.83,0,0,1,2.06,14.9,21.84,21.84,0,0,1,3.57-10.57c.4,1.93.81,3.87,1.21,5.8a27.47,27.47,0,0,1,5.3-11.63,15.59,15.59,0,0,0,5.31,16.69q-.49-3.54-1-7.1l3.78,4.44a23.45,23.45,0,0,0-4.58-12c5.41,1.75,8.93,9,11.8,13.92-1.21-2.63-.47-9.08-.13-11.95,1.85,4.76,3.54,12.54,8.61,12-.85-.71-1.68-6-2.53-6.74,6.78-1.16,8.24,1,11.94,6.81-3.1-6.21-2.53-11.71-5.08-17.58,4.91,4.24,5.39,9.06,6.47,10.27,2.67,3,3.57,3,6.1,3l-1.56-6a16.69,16.69,0,0,1,8.89,7.24l-.3-6.74a18.94,18.94,0,0,1,5.32,8.72c.54-1.65,1.09-3.3,1.63-5,.32,2.24.63,4.47,1,6.7.63-7.15,5.74-7.19,5.51-17.54,2.75,3.68,1.64,9.24,1.56,13.83.53-2.33,3.15-8.95,3.68-11.28a26.22,26.22,0,0,1,2.68,13c1-3,1.94-5.93,2.9-8.9a32.18,32.18,0,0,0,3.51,12.24,32.36,32.36,0,0,1,2.58-19.49c.28,8.41,3.39,11.53,6.17,15a13.75,13.75,0,0,0-.06-8.23A25.21,25.21,0,0,1,416.37,23c.06-1.57.13-3.14.2-4.71l6.83,6.13A43.21,43.21,0,0,1,419.63.22c1.28,7.34,2.43,12.21,6,16.72.55-3.91,8.74-7.73,7.5-11.48C436,8.23,432.42,14,432.73,18c4.59-2.15,5.42-5.19,6.5-8.75C439.55,10.29,439.83,11.25,440.07,12.18Z"/></g></g></svg>