<svg xmlns="http://www.w3.org/2000/svg" viewBox="0 0 212.48 119.03"><defs><style>.cls-1{fill:#606161;}.cls-2{fill:#ee2524;}.cls-3{fill:#090909;}.cls-4{fill:#2d2e2d;}.cls-5{fill:#a7a6a6;}.cls-6{fill:#4a4a4a;}.cls-7{fill:#bb2026;}</style></defs><g id="Layer_2" data-name="Layer 2"><g id="Layer_7" data-name="Layer 7"><path class="cls-1" d="M111.39,66.41l.73,1.2-4.26,2.91a1.83,1.83,0,0,0-.47,2.54,1.83,1.83,0,0,0,2.53.46l4.3-2.94.86,1.08-5.19,3.54h-.57A21.85,21.85,0,0,0,95.9,79.77V77.56l3.34-2.41Z"/><path class="cls-1" d="M192.46,8.37l3,2.18,3.13,2.26,2.83,2a1.18,1.18,0,0,1-1.38,1.92l-3.53-2.55L193.39,12l-2.32-1.68a1.18,1.18,0,0,1-.27-1.65A1.2,1.2,0,0,1,192.46,8.37Z"/><path class="cls-2" d="M26.06,106a13,13,0,0,0-6.34-11.18h67.8a22,22,0,0,0,3,13.56H25.84A13.25,13.25,0,0,0,26.06,106Z"/><path class="cls-2" d="M73.52,64.16c9.43,0,12.25-2.67,12.25-2.67s2,4.25,2.19,13.7H27.38C40.55,62.74,66.08,64.16,73.52,64.16Z"/><path class="cls-3" d="M95.9,79.77a21.85,21.85,0,0,1,13.42-4.58h.57a21.91,21.91,0,0,1,21.17,19.15,21.09,21.09,0,0,1,.18,2.76,21.92,21.92,0,1,1-43.84,0,21.94,21.94,0,0,1,8.5-17.34Z"/><path class="cls-3" d="M11,93.13A13.3,13.3,0,0,1,13,93c.26,0,.51,0,.77,0a12.89,12.89,0,0,1,5.92,1.82A13,13,0,0,1,26.06,106a13.25,13.25,0,0,1-.22,2.38A13,13,0,1,1,11,93.13Z"/><path class="cls-4" d="M115.9,50.81l63.39-32.49a1.76,1.76,0,0,1,2.57,1.54L112.12,67.61l-.73-1.2L99.24,75.15l11.11-18.48Z"/><path class="cls-4" d="M114.22,70.58l67.64-46.31V57a23.09,23.09,0,0,0,3,11.52A6.77,6.77,0,0,1,181,78.27l-50,16.08A21.91,21.91,0,0,0,109.89,75.2l5.19-3.54Z"/><path class="cls-4" d="M85.38,88.42v6.4H29.83c1-1.5,1.23-4.2,1.28-6.4Z"/><path class="cls-5" d="M109.32,83.26A13.85,13.85,0,1,1,95.47,97.11,13.85,13.85,0,0,1,109.32,83.26Z"/><path class="cls-5" d="M13,97.77A8.24,8.24,0,1,1,4.8,106,8.23,8.23,0,0,1,13,97.77Z"/><path class="cls-6" d="M88,75.19c0,.5,0,1,0,1.53v11.7H20.05a24.71,24.71,0,0,1,7.33-13.23Z"/><path class="cls-6" d="M9.64,87.86a1.25,1.25,0,0,1,1.7.52L13.8,93c-.26,0-.51,0-.77,0a13.3,13.3,0,0,0-2,.16l-1.9-3.57A1.27,1.27,0,0,1,9.64,87.86Z"/><path class="cls-6" d="M13,103.63A2.38,2.38,0,1,1,10.65,106,2.38,2.38,0,0,1,13,103.63Z"/><path class="cls-6" d="M109.32,93.11a4,4,0,1,1-4,4A4,4,0,0,1,109.32,93.11Z"/><path class="cls-5" d="M108.89,73.84a1.81,1.81,0,0,1-1.5-.78,1.83,1.83,0,0,1,.47-2.54l4.26-2.91,69.74-47.75L193.39,12l3.13,2.26-14.66,10L114.22,70.58l-4.3,2.94A1.81,1.81,0,0,1,108.89,73.84Z"/><path class="cls-5" d="M211.7,3.32,159,40l-2.83-2.47L209.63.32a1.82,1.82,0,0,1,2.07,3Z"/><path class="cls-7" d="M19.72,94.82H57.61v13.56H25.84a13.25,13.25,0,0,0,.22-2.38A13,13,0,0,0,19.72,94.82Z"/><path class="cls-7" d="M57.61,64.47V75.19H27.38C35.22,67.78,47.43,65.28,57.61,64.47Z"/><path class="cls-3" d="M31.11,88.42h26.5v6.4H29.83C30.79,93.32,31.06,90.62,31.11,88.42Z"/><path class="cls-4" d="M20.05,88.42a24.71,24.71,0,0,1,7.33-13.23H57.61V88.42H20.05Z"/></g></g></svg>