<?xml version="1.0" encoding="utf-8"?>
<!-- Generator: Adobe Illustrator 25.0.0, SVG Export Plug-In . SVG Version: 6.00 Build 0)  -->
<svg version="1.1" id="Layer_1" xmlns="http://www.w3.org/2000/svg" xmlns:xlink="http://www.w3.org/1999/xlink" x="0px" y="0px"
	 viewBox="0 0 17.2 17.2" style="enable-background:new 0 0 17.2 17.2;" xml:space="preserve">
<style type="text/css">
	.st0{fill:none;}
	.st1{fill:#5E5F5F;}
</style>
<g>
	<g>
		<g>
			<polygon class="st0" points="15.7,0 6.3,10.3 3.6,8.2 2.1,8.2 6.3,15.1 17.2,0 			"/>
		</g>
	</g>
	<polygon class="st0" points="15.7,0 6.3,10.3 3.6,8.2 2.1,8.2 6.3,15.1 17.2,0 	"/>
	<path class="st1" d="M15.7,0.9H12H0.6C0.3,0.9,0,1.2,0,1.5v11.7v3.4c0,0.3,0.3,0.6,0.6,0.6h3.7h11.4c0.3,0,0.6-0.3,0.6-0.6V4.9V1.5
		C16.3,1.2,16,0.9,15.7,0.9z M14.5,15.1c0,0.2-0.1,0.3-0.3,0.3H6H2.1c-0.2,0-0.3-0.1-0.3-0.3v-4.4V3c0-0.2,0.1-0.3,0.3-0.3h8.2h3.9
		c0.2,0,0.3,0.1,0.3,0.3v4.4C14.5,7.4,14.5,15.1,14.5,15.1z"/>
</g>
</svg>
