<?xml version="1.0" encoding="utf-8"?>
<!-- Generator: Adobe Illustrator 25.0.0, SVG Export Plug-In . SVG Version: 6.00 Build 0)  -->
<svg version="1.1" id="Layer_1" xmlns="http://www.w3.org/2000/svg" xmlns:xlink="http://www.w3.org/1999/xlink" x="0px" y="0px"
	 viewBox="0 0 32.5 32.5" style="enable-background:new 0 0 32.5 32.5;" xml:space="preserve">
<style type="text/css">
	.st0{fill:#0B8040;}
	.st1{fill:#0E7F40;}
	.st2{filter:url(#Adobe_OpacityMaskFilter);}
	.st3{opacity:0.2;mask:url(#SVGID_1_);}
</style>
<g>
	<g>
		<path class="st0" d="M16.3,32.5C7.3,32.5,0,25.2,0,16.3S7.3,0,16.3,0c9,0,16.3,7.3,16.3,16.3S25.2,32.5,16.3,32.5z M16.3,1
			C7.8,1,1,7.8,1,16.3s6.8,15.3,15.3,15.3s15.3-6.8,15.3-15.3S24.7,1,16.3,1z"/>
	</g>
</g>
<g>
	<g>
		<circle class="st1" cx="16.3" cy="16.3" r="10"/>
	</g>
	<defs>
		<filter id="Adobe_OpacityMaskFilter" filterUnits="userSpaceOnUse" x="6.3" y="6.3" width="19.9" height="19.9">
			
				<feColorMatrix  type="matrix" values="-1 0 0 0 1  0 -1 0 0 1  0 0 -1 0 1  0 0 0 1 0" color-interpolation-filters="sRGB" result="source"/>
		</filter>
	</defs>
	<mask maskUnits="userSpaceOnUse" x="6.3" y="6.3" width="19.9" height="19.9" id="SVGID_1_">
		<g class="st2">
			<image style="overflow:visible;" width="25" height="25" xlink:href="75E5743D.jpg"  transform="matrix(1 0 0 1 3.3467 3.5888)">
			</image>
		</g>
	</mask>
	<g class="st3">
		<circle cx="16.3" cy="16.3" r="10"/>
	</g>
</g>
</svg>
