<?xml version="1.0" encoding="utf-8"?>
<!-- Generator: Adobe Illustrator 25.0.0, SVG Export Plug-In . SVG Version: 6.00 Build 0)  -->
<svg version="1.1" id="Layer_1" xmlns="http://www.w3.org/2000/svg" xmlns:xlink="http://www.w3.org/1999/xlink" x="0px" y="0px"
	 viewBox="0 0 23.6 30.1" style="enable-background:new 0 0 23.6 30.1;" xml:space="preserve">
<style type="text/css">
	.st0{fill:#89664D;}
	.st1{fill:#FDD0AD;}
	.st2{fill:#D2976D;}
	.st3{fill:#D0D1D0;}
	.st4{fill:#FFFFFF;}
</style>
<g>
	<g>
		<polygon class="st0" points="11.8,30.1 0,21.1 0,9 11.8,18 		"/>
		<polygon class="st1" points="11.8,18 11.8,30.1 23.6,21.1 23.6,9 		"/>
		<polygon class="st2" points="0,9 11.8,18 23.6,9 11.8,0 		"/>
		<polygon class="st0" points="18.8,12.7 7,3.7 4.8,5.4 16.6,14.4 		"/>
		<polygon class="st3" points="14.5,3.2 11.9,1.1 9.7,2.8 12.3,4.9 		"/>
		<polygon class="st2" points="18.8,12.7 16.7,14.3 16.7,18.7 18.8,17.1 		"/>
		<polygon class="st4" points="23.1,10.4 21,12 21,16.3 23.1,14.7 		"/>
		<polygon class="st4" points="15.4,20.4 12.5,22.6 12.5,28.5 15.4,26.3 		"/>
		<polygon class="st2" points="16.7,26.4 18.8,24.8 18.8,20.4 16.7,22 		"/>
	</g>
</g>
</svg>
