<?xml version="1.0" encoding="utf-8"?>
<!-- Generator: Adobe Illustrator 25.0.0, SVG Export Plug-In . SVG Version: 6.00 Build 0)  -->
<svg version="1.1" id="Layer_1" xmlns="http://www.w3.org/2000/svg" xmlns:xlink="http://www.w3.org/1999/xlink" x="0px" y="0px"
	 viewBox="0 0 13.6 13.3" style="enable-background:new 0 0 13.6 13.3;" xml:space="preserve">
<style type="text/css">
	.st0{fill:#CECDCD;stroke:#CECDCD;stroke-width:0.5;stroke-miterlimit:10;}
</style>
<path class="st0" d="M9.1,1.6v-1c0-0.2-0.2-0.3-0.3-0.3h-4c-0.2,0-0.3,0.2-0.3,0.3v1c0,0.2-0.2,0.3-0.3,0.3H0.6
	c-0.2,0-0.3,0.2-0.3,0.3v0c0,0.2,0.2,0.3,0.3,0.3h1c0.2,0,0.3,0.1,0.3,0.3l0.5,9.7c0,0,0,0,0,0v0c0,0.2,0.2,0.3,0.3,0.3h7.9
	c0.2,0,0.3-0.2,0.3-0.3v0c0,0,0,0,0,0L11.6,3c0-0.2,0.2-0.3,0.3-0.3H13c0.2,0,0.3-0.2,0.3-0.3v0c0-0.2-0.2-0.3-0.3-0.3H9.4
	C9.2,1.9,9.1,1.8,9.1,1.6z M5.5,1H8c0.2,0,0.3,0.2,0.3,0.3v0.3c0,0.2-0.2,0.3-0.3,0.3H5.5c-0.2,0-0.3-0.2-0.3-0.3V1.3
	C5.2,1.1,5.3,1,5.5,1z M10,12.3H3.5c-0.2,0-0.3-0.1-0.3-0.3L2.7,3c0-0.2,0.1-0.4,0.3-0.4h7.5c0.2,0,0.4,0.2,0.3,0.4l-0.5,9
	C10.4,12.2,10.2,12.3,10,12.3z"/>
</svg>
