<?xml version="1.0" encoding="UTF-8"?>
<svg id="Layer_2" data-name="Layer 2" xmlns="http://www.w3.org/2000/svg" viewBox="0 0 171.59 53.03">
  <defs>
    <style>
      .cls-1 {
        fill: #224222;
        fill-rule: evenodd;
      }
    </style>
  </defs>
  <g id="Layer_4" data-name="Layer 4">
    <path class="cls-1" d="M151.05,28.57c-.8-.24-1.32-.73-1.89-1.12-12.95-8.95-26.73-16.3-41.67-21.38C84.53-1.75,61.4-1.9,38.23,4.96c-9.32,2.76-17.84,7.33-25.48,13.37C7.24,22.69,2.98,28.09.65,34.84c-.44,1.27-.79,2.58-.6,3.96.09.69.29,1.34,1.04,1.6.76.26,1.27-.18,1.74-.71,1.48-1.64,3.04-3.21,4.43-4.91,6.62-8.09,15.09-13.51,24.71-17.3,12.33-4.85,25.15-6.65,38.34-6.41,17.18.32,33.25,4.95,48.64,12.31,7.91,3.78,15.6,7.91,22.71,13.07.36.26.71.55,1.05.84.04.03.03.13.05.23-.44.23-.87.03-1.29-.03-7.64-.99-15.29-1.86-23.01-1.68-2.03.05-4.02.31-5.97.9-.9.27-1.76.63-2.51,1.21-1.62,1.29-1.43,2.94.5,3.7,3.1,1.23,6.33,2.05,9.63,2.53,6.66.98,13.32,1.88,19.98,2.87,8.11,1.2,16.07,3.1,23.9,5.54.39.12.79.24,1.19.33,3.63.78,6.6-1.75,6.42-5.46-.06-1.25-.46-2.42-.9-3.57-.89-2.3-1.97-4.52-3.1-6.72-2.43-4.72-4.88-9.43-7.34-14.13-1.31-2.49-2.85-4.83-4.68-6.97-1.32-1.54-2.36-3.27-3.45-4.97-.68-1.07-1.37-2.14-2.1-3.18-.85-1.21-1.93-1.65-3.06-1.33-1.13.32-1.95,1.42-2.06,2.81-.1,1.25.13,2.48.62,3.62,2.11,4.91,2.93,10.29,5.44,15.06.06.11.05.27.09.54"/>
  </g>
</svg>