<?xml version="1.0" encoding="UTF-8"?>
<svg id="Layer_2" data-name="Layer 2" xmlns="http://www.w3.org/2000/svg" viewBox="0 0 23.24 23.24">
  <defs>
    <style>
      .cls-1 {
        fill: #fff;
      }
    </style>
  </defs>
  <g id="Layer_4" data-name="Layer 4">
    <path class="cls-1" d="M23.24,9.93v3.39c0,.4-.33.73-.73.73h-7.74c-.4,0-.73.33-.73.73v7.74c0,.4-.33.73-.73.73h-3.39c-.4,0-.73-.33-.73-.73v-7.74c0-.4-.33-.73-.73-.73H.73c-.4,0-.73-.33-.73-.73v-3.39c0-.4.33-.73.73-.73h7.73c.4,0,.73-.33.73-.73V.73c0-.4.33-.73.73-.73h3.39c.4,0,.73.33.73.73v7.74c0,.4.33.73.73.73h7.74c.4,0,.73.33.73.73Z"/>
  </g>
</svg>